<svg xmlns="http://www.w3.org/2000/svg" viewBox="0 0 80 80"><g transform="translate(23.000000, 8.000000)"><path d="M6.72,2.36521739 C4.06,2.36521739 1.82,4.59130435 1.82,7.23478261 L1.82,57.0434783 C1.82,59.6869565 4.06,61.9130435 6.72,61.9130435 L28.56,61.9130435 C31.22,61.9130435 33.46,59.6869565 33.46,57.0434783 L33.46,7.23478261 C33.46,4.59130435 31.22,2.36521739 28.56,2.36521739 L6.72,2.36521739 Z" fill="#FFFFFF"></path><path d="M28.56,63.3043478 L6.72,63.3043478 C3.22,63.3043478 0.42,60.5217391 0.42,57.0434783 L0.42,7.23478261 C0.42,3.75652174 3.22,0.973913043 6.72,0.973913043 L28.56,0.973913043 C32.06,0.973913043 34.86,3.75652174 34.86,7.23478261 L34.86,57.0434783 C34.86,60.5217391 32.06,63.3043478 28.56,63.3043478 Z M6.72,2.36521739 C4.06,2.36521739 1.82,4.59130435 1.82,7.23478261 L1.82,57.0434783 C1.82,59.6869565 4.06,61.9130435 6.72,61.9130435 L28.56,61.9130435 C31.22,61.9130435 33.46,59.6869565 33.46,57.0434783 L33.46,7.23478261 C33.46,4.59130435 31.22,2.36521739 28.56,2.36521739 L6.72,2.36521739 Z" fill="#000000"></path><g transform="translate(14.000000, 51.478261)"><ellipse fill="transparent" cx="3.64" cy="4.17391304" rx="2.38" ry="2.36521739"></ellipse><path d="M3.64,7.09565217 C1.96,7.09565217 0.56,5.70434783 0.56,4.03478261 C0.56,2.36521739 1.96,0.973913043 3.64,0.973913043 C5.32,0.973913043 6.72,2.36521739 6.72,4.03478261 C6.72,5.70434783 5.32,7.09565217 3.64,7.09565217 Z M3.64,2.50434783 C2.66,2.50434783 1.96,3.2 1.96,4.17391304 C1.96,5.14782609 2.66,5.84347826 3.64,5.84347826 C4.62,5.84347826 5.32,5.14782609 5.32,4.17391304 C5.32,3.2 4.62,2.50434783 3.64,2.50434783 Z" fill="#000000"></path></g><g transform="translate(4.200000, 19.478261)"><rect fill="transparent" x="1.68" y="0.973913043" width="8.26" height="8.20869565"></rect><path d="M9.94,9.87826087 L1.68,9.87826087 C1.26,9.87826087 0.98,9.6 0.98,9.1826087 L0.98,0.973913043 C0.98,0.556521739 1.26,0.27826087 1.68,0.27826087 L9.94,0.27826087 C10.36,0.27826087 10.64,0.556521739 10.64,0.973913043 L10.64,9.1826087 C10.64,9.6 10.36,9.87826087 9.94,9.87826087 Z M2.38,8.48695652 L9.24,8.48695652 L9.24,1.66956522 L2.38,1.66956522 L2.38,8.48695652 L2.38,8.48695652 Z" fill="#000000"></path></g><path d="M10.64,25.8782609 L9.52,25.8782609 C9.1,25.8782609 8.82,25.6 8.82,25.1826087 L8.82,24.0695652 C8.82,23.6521739 9.1,23.373913 9.52,23.373913 L10.64,23.373913 C11.06,23.373913 11.34,23.6521739 11.34,24.0695652 L11.34,25.1826087 C11.34,25.4608696 10.92,25.8782609 10.64,25.8782609 Z" fill="#000000"></path><g transform="translate(4.200000, 34.782609)"><rect fill="transparent" x="1.68" y="0.834782609" width="8.26" height="8.20869565"></rect><path d="M9.94,9.73913043 L1.68,9.73913043 C1.26,9.73913043 0.98,9.46086957 0.98,9.04347826 L0.98,0.834782609 C0.98,0.417391304 1.26,0.139130435 1.68,0.139130435 L9.94,0.139130435 C10.36,0.139130435 10.64,0.417391304 10.64,0.834782609 L10.64,9.04347826 C10.64,9.46086957 10.36,9.73913043 9.94,9.73913043 Z M2.38,8.34782609 L9.24,8.34782609 L9.24,1.53043478 L2.38,1.53043478 L2.38,8.34782609 L2.38,8.34782609 Z" fill="#000000"></path></g><path d="M10.64,41.0434783 L9.52,41.0434783 C9.1,41.0434783 8.82,40.7652174 8.82,40.3478261 L8.82,39.2347826 C8.82,38.8173913 9.1,38.5391304 9.52,38.5391304 L10.64,38.5391304 C11.06,38.5391304 11.34,38.8173913 11.34,39.2347826 L11.34,40.3478261 C11.34,40.7652174 10.92,41.0434783 10.64,41.0434783 Z" fill="#000000"></path><g transform="translate(19.600000, 19.478261)"><rect fill="transparent" x="1.54" y="0.973913043" width="8.26" height="8.20869565"></rect><path d="M9.8,9.87826087 L1.54,9.87826087 C1.12,9.87826087 0.84,9.6 0.84,9.1826087 L0.84,0.973913043 C0.84,0.556521739 1.12,0.27826087 1.54,0.27826087 L9.8,0.27826087 C10.22,0.27826087 10.5,0.556521739 10.5,0.973913043 L10.5,9.1826087 C10.5,9.6 10.22,9.87826087 9.8,9.87826087 Z M2.24,8.48695652 L9.1,8.48695652 L9.1,1.66956522 L2.24,1.66956522 L2.24,8.48695652 Z" fill="#000000"></path></g><path d="M25.9,25.8782609 L24.78,25.8782609 C24.36,25.8782609 24.08,25.6 24.08,25.1826087 L24.08,24.0695652 C24.08,23.6521739 24.36,23.373913 24.78,23.373913 L25.9,23.373913 C26.32,23.373913 26.6,23.6521739 26.6,24.0695652 L26.6,25.1826087 C26.6,25.4608696 26.32,25.8782609 25.9,25.8782609 Z" fill="#000000"></path><path d="M17.64,37.5652174 C17.22,37.5652174 16.94,37.2869565 16.94,36.8695652 L16.94,32.8347826 L8.26,32.8347826 C7.84,32.8347826 7.56,32.5565217 7.56,32.1391304 C7.56,31.7217391 7.84,31.4434783 8.26,31.4434783 L17.64,31.4434783 C18.06,31.4434783 18.34,31.7217391 18.34,32.1391304 L18.34,36.8695652 C18.34,37.2869565 18.06,37.5652174 17.64,37.5652174 Z" fill="#000000"></path><path d="M17.64,22.2608696 C17.22,22.2608696 16.94,21.9826087 16.94,21.5652174 L16.94,20.4521739 C16.94,20.0347826 17.22,19.7565217 17.64,19.7565217 C18.06,19.7565217 18.34,20.0347826 18.34,20.4521739 L18.34,21.5652174 C18.34,21.9826087 18.06,22.2608696 17.64,22.2608696 Z" fill="#000000"></path><path d="M17.64,29.3565217 C17.22,29.3565217 16.94,29.0782609 16.94,28.6608696 L16.94,25.1826087 C16.94,24.7652174 17.22,24.4869565 17.64,24.4869565 C18.06,24.4869565 18.34,24.7652174 18.34,25.1826087 L18.34,28.6608696 C18.34,29.0782609 18.06,29.3565217 17.64,29.3565217 Z" fill="#000000"></path><path d="M24.78,41.0434783 L21.28,41.0434783 C20.86,41.0434783 20.58,40.7652174 20.58,40.3478261 C20.58,39.9304348 20.86,39.6521739 21.28,39.6521739 L24.08,39.6521739 L24.08,39.2347826 C24.08,38.8173913 24.36,38.5391304 24.78,38.5391304 C25.2,38.5391304 25.48,38.8173913 25.48,39.2347826 L25.48,40.3478261 C25.48,40.7652174 25.06,41.0434783 24.78,41.0434783 Z" fill="#000000"></path><path d="M29.4,44.5217391 L24.64,44.5217391 C24.22,44.5217391 23.94,44.2434783 23.94,43.826087 C23.94,43.4086957 24.22,43.1304348 24.64,43.1304348 L28.7,43.1304348 L28.7,37.9826087 C28.7,37.5652174 28.98,37.2869565 29.4,37.2869565 C29.82,37.2869565 30.1,37.5652174 30.1,37.9826087 L30.1,43.826087 C30.1,44.2434783 29.82,44.5217391 29.4,44.5217391 Z" fill="#000000"></path><path d="M21.14,7.09565217 L14,7.09565217 C13.58,7.09565217 13.3,6.8173913 13.3,6.4 C13.3,5.9826087 13.58,5.70434783 14,5.70434783 L21.14,5.70434783 C21.56,5.70434783 21.84,5.9826087 21.84,6.4 C21.84,6.8173913 21.56,7.09565217 21.14,7.09565217 Z" fill="#000000"></path><path d="M21.14,44.5217391 L17.64,44.5217391 C17.22,44.5217391 16.94,44.2434783 16.94,43.826087 L16.94,40.3478261 C16.94,39.9304348 17.22,39.6521739 17.64,39.6521739 C18.06,39.6521739 18.34,39.9304348 18.34,40.3478261 L18.34,43.1304348 L21.14,43.1304348 C21.56,43.1304348 21.84,43.4086957 21.84,43.826087 C21.84,44.2434783 21.56,44.5217391 21.14,44.5217391 Z" fill="#000000"></path><g transform="translate(19.600000, 30.608696)"><rect fill="transparent" x="1.54" y="1.53043478" width="3.5" height="3.47826087"></rect><path d="M5.18,5.70434783 L1.68,5.70434783 C1.26,5.70434783 0.98,5.42608696 0.98,5.00869565 L0.98,1.53043478 C0.98,1.11304348 1.26,0.834782609 1.68,0.834782609 L5.18,0.834782609 C5.6,0.834782609 5.88,1.11304348 5.88,1.53043478 L5.88,5.00869565 C5.88,5.42608696 5.46,5.70434783 5.18,5.70434783 Z M2.24,4.31304348 L4.34,4.31304348 L4.34,2.22608696 L2.24,2.22608696 L2.24,4.31304348 Z" fill="#000000"></path></g><path d="M29.4,35.2 C28.98,35.2 28.7,34.9217391 28.7,34.5043478 L28.7,32.8347826 L28.28,32.8347826 C27.86,32.8347826 27.58,32.5565217 27.58,32.1391304 C27.58,31.7217391 27.86,31.4434783 28.28,31.4434783 L29.4,31.4434783 C29.82,31.4434783 30.1,31.7217391 30.1,32.1391304 L30.1,34.5043478 C30.1,34.9217391 29.82,35.2 29.4,35.2 Z" fill="#000000"></path></g></svg>